<svg xmlns="http://www.w3.org/2000/svg" viewBox="0 0 24 24" role="img" aria-hidden="true">
  <path fill="#fff" d="M12.02 2.1c-4.9 0-8.7 3.3-8.7 7.93 0 2.58 1.18 4.78 3.12 6.2v3.08c0 .44.51.68.84.4l2.63-2.2c.68.13 1.38.2 2.11.2 4.9 0 8.7-3.3 8.7-7.93S16.92 2.1 12.02 2.1Zm4.83 11.63c-.22.62-1.12 1.16-1.83 1.3-.49.1-1.13.18-3.27-.7-2.74-1.13-4.5-3.92-4.64-4.1-.13-.18-1.1-1.46-1.1-2.78s.7-1.96.95-2.24c.22-.24.58-.35.93-.35h.33c.29.01.44.04.63.48.23.56.8 1.92.87 2.06.07.14.11.31.02.49-.08.18-.13.29-.27.44-.14.16-.28.34-.4.46-.13.14-.27.29-.12.56.15.27.66 1.08 1.42 1.75.98.87 1.78 1.14 2.07 1.27.22.1.49.08.65-.1.2-.23.46-.62.73-1 .19-.27.43-.3.69-.2.26.09 1.64.77 1.92.91.28.14.47.21.54.33.07.12.07.74-.15 1.36Zm-3.35-8.3c2.04.43 3.2 1.6 3.49 3.54.04.28-.15.54-.43.58a.51.51 0 0 1-.58-.43c-.22-1.5-1.04-2.34-2.7-2.69a.51.51 0 0 1-.39-.6.51.51 0 0 1 .61-.4Zm-.18 1.73c1.09.29 1.68.9 1.85 1.9a.51.51 0 0 1-1 .17c-.1-.58-.4-.88-1.1-1.07a.51.51 0 1 1 .25-1Zm.37-3.48c2.88.55 4.56 2.25 5.02 5.08a.51.51 0 0 1-1 .16c-.39-2.42-1.72-3.76-4.22-4.24a.51.51 0 1 1 .2-1Z"/>
</svg>
